<?xml version="1.0" standalone="no"?>
<!DOCTYPE svg PUBLIC "-//W3C//DTD SVG 20010904//EN"
 "http://www.w3.org/TR/2001/REC-SVG-20010904/DTD/svg10.dtd">
<svg version="1.0" xmlns="http://www.w3.org/2000/svg"
 width="51.000000pt" height="51.000000pt" viewBox="0 0 51.000000 51.000000"
 preserveAspectRatio="xMidYMid meet">

<g transform="translate(0.000000,51.000000) scale(0.100000,-0.100000)"
fill="#000000" stroke="none">
<path d="M224 485 c3 -14 9 -36 12 -50 10 -42 -14 -28 -26 15 -6 22 -14 40
-19 40 -25 0 -91 -117 -73 -129 5 -3 12 -25 15 -49 3 -24 17 -58 32 -78 37
-48 30 -66 -30 -80 -68 -15 -92 -32 -110 -77 -32 -79 -36 -77 150 -77 l165 0
0 54 c0 35 5 58 15 66 22 18 18 38 -7 42 -33 4 -33 32 -3 72 15 20 29 54 32
78 3 24 10 46 15 49 5 3 0 26 -10 50 -32 74 -82 102 -82 46 0 -25 -16 -54 -25
-46 -3 4 -2 25 3 47 11 48 9 52 -31 52 -26 0 -29 -3 -23 -25z m126 -170 c0
-37 -5 -50 -35 -80 -45 -44 -72 -44 -118 0 -32 31 -37 42 -37 80 l0 45 95 0
95 0 0 -45z m-43 -152 c10 -20 7 -23 -21 -33 -23 -7 -41 -7 -63 0 -27 10 -29
14 -20 33 15 32 89 32 104 0z"/>
<path d="M445 328 c-4 -13 -7 -28 -6 -35 1 -6 -3 -14 -8 -18 -6 -3 -8 -12 -5
-19 3 -8 1 -17 -5 -20 -6 -4 -8 -13 -5 -20 3 -8 0 -17 -5 -21 -6 -3 -9 -11 -5
-16 3 -5 0 -16 -6 -24 -16 -20 4 -27 61 -23 l44 3 3 94 c3 97 -5 121 -38 121
-10 0 -21 -10 -25 -22z"/>
<path d="M364 96 c-3 -8 -4 -31 -2 -52 l3 -39 43 2 c24 1 55 9 68 18 25 16 41
56 29 74 -10 17 -134 14 -141 -3z"/>
</g>
</svg>
