<?xml version="1.0" standalone="no"?>
<!DOCTYPE svg PUBLIC "-//W3C//DTD SVG 20010904//EN"
 "http://www.w3.org/TR/2001/REC-SVG-20010904/DTD/svg10.dtd">
<svg version="1.0" xmlns="http://www.w3.org/2000/svg"
 width="55.000000pt" height="55.000000pt" viewBox="0 0 55.000000 55.000000"
 preserveAspectRatio="xMidYMid meet">

<g transform="translate(0.000000,55.000000) scale(0.100000,-0.100000)"
fill="#000000" stroke="none">
<path d="M199 491 c-22 -22 -39 -48 -39 -61 0 -23 0 -23 20 -5 19 17 25 18 63
6 78 -23 136 -29 142 -13 8 20 -12 50 -45 67 -19 10 -27 20 -24 30 5 12 -3 15
-36 15 -36 0 -48 -6 -81 -39z"/>
<path d="M190 394 c-6 -14 -10 -35 -10 -46 0 -17 -2 -18 -15 -8 -13 10 -15 9
-15 -8 0 -12 6 -25 13 -29 6 -4 19 -21 27 -38 15 -28 18 -29 85 -29 67 0 70 1
85 29 8 17 21 34 28 38 6 4 12 17 12 29 0 17 -3 18 -14 9 -12 -10 -15 -7 -18
16 -3 24 -8 29 -43 34 -22 3 -50 10 -62 17 -36 20 -62 15 -73 -14z m65 -24 c4
-6 -7 -10 -25 -10 -18 0 -29 4 -25 10 3 6 15 10 25 10 10 0 22 -4 25 -10z m90
0 c4 -6 -7 -10 -25 -10 -18 0 -29 4 -25 10 3 6 15 10 25 10 10 0 22 -4 25 -10z
m-104 -35 c-1 -15 -24 -12 -29 3 -3 9 2 13 12 10 10 -1 17 -7 17 -13z m99 6
c0 -14 -18 -23 -30 -16 -6 4 -8 11 -5 16 8 12 35 12 35 0z m-55 -51 c-3 -5
-10 -10 -16 -10 -5 0 -9 5 -9 10 0 6 7 10 16 10 8 0 12 -4 9 -10z m15 -30 c0
-5 -12 -10 -26 -10 -14 0 -23 4 -19 10 3 6 15 10 26 10 10 0 19 -4 19 -10z"/>
<path d="M211 203 c-35 -17 -71 -66 -71 -95 0 -10 5 -18 10 -18 6 0 10 8 10
19 0 24 37 70 64 81 51 19 65 -59 18 -106 -15 -16 -36 -34 -47 -40 -11 -7 -17
-15 -14 -18 4 -4 22 2 40 13 43 26 65 26 108 0 18 -11 36 -17 40 -13 3 3 -3
11 -14 18 -11 6 -32 24 -47 40 -47 47 -33 125 18 106 27 -11 64 -57 64 -81 0
-11 5 -19 10 -19 16 0 12 30 -10 65 -37 60 -113 80 -179 48z"/>
<path d="M233 173 c-18 -7 -16 -23 2 -23 8 0 15 7 15 15 0 8 -1 15 -2 14 -2 0
-9 -3 -15 -6z"/>
<path d="M300 165 c0 -16 16 -20 24 -6 3 5 -1 11 -9 15 -9 3 -15 0 -15 -9z"/>
<path d="M407 164 c6 -15 23 -19 23 -5 0 5 -7 11 -14 14 -10 4 -13 1 -9 -9z"/>
<path d="M120 160 c0 -5 5 -10 10 -10 6 0 10 5 10 10 0 6 -4 10 -10 10 -5 0
-10 -4 -10 -10z"/>
<path d="M106 133 c-3 -3 -6 -19 -6 -35 0 -15 -5 -28 -11 -28 -6 0 -9 -10 -7
-22 2 -19 10 -24 41 -26 34 -3 37 -1 37 22 0 20 -5 26 -21 26 -18 0 -21 5 -17
30 5 30 -3 46 -16 33z"/>
<path d="M181 118 c-19 -50 15 -64 49 -21 16 20 18 28 8 35 -24 14 -49 8 -57
-14z"/>
<path d="M312 132 c-10 -7 -8 -15 8 -35 34 -43 68 -29 49 21 -8 22 -33 28 -57
14z"/>
<path d="M429 133 c-1 -4 0 -20 1 -35 1 -22 -3 -28 -19 -28 -16 0 -21 -6 -21
-26 0 -23 3 -25 38 -22 30 2 38 7 40 26 2 12 -1 22 -7 22 -6 0 -11 13 -11 29
0 26 -18 55 -21 34z"/>
<path d="M240 30 c-11 -7 -1 -10 35 -10 36 0 46 3 35 10 -8 5 -24 10 -35 10
-11 0 -27 -5 -35 -10z"/>
</g>
</svg>
