<?xml version="1.0" standalone="no"?>
<!DOCTYPE svg PUBLIC "-//W3C//DTD SVG 20010904//EN"
 "http://www.w3.org/TR/2001/REC-SVG-20010904/DTD/svg10.dtd">
<svg version="1.0" xmlns="http://www.w3.org/2000/svg"
 width="51.000000pt" height="51.000000pt" viewBox="0 0 51.000000 51.000000"
 preserveAspectRatio="xMidYMid meet">

<g transform="translate(0.000000,51.000000) scale(0.100000,-0.100000)"
fill="#000000" stroke="none">
<path d="M228 463 c-4 -58 -30 -68 -38 -15 -5 31 -6 32 -26 18 -12 -9 -27 -29
-34 -46 -7 -16 -19 -30 -27 -30 -8 0 -13 -6 -10 -12 5 -18 319 -18 325 0 2 6
-3 12 -11 12 -8 0 -20 14 -27 30 -7 17 -22 37 -34 46 -20 14 -21 13 -26 -18
-8 -53 -34 -43 -38 15 -3 42 -6 47 -27 47 -21 0 -24 -5 -27 -47z"/>
<path d="M123 313 c-4 -10 1 -22 14 -32 11 -9 26 -27 32 -39 7 -13 27 -32 44
-42 29 -18 30 -20 10 -20 -22 0 -23 -3 -23 -90 l0 -90 55 0 55 0 0 90 c0 87
-1 90 -22 90 -21 0 -20 2 9 20 17 10 37 29 44 42 6 12 21 30 32 39 13 10 18
22 14 32 -5 15 -24 17 -132 17 -108 0 -127 -2 -132 -17z m157 -219 c0 -23 -12
-44 -25 -44 -19 0 -30 57 -14 76 12 14 14 14 26 -2 7 -10 13 -23 13 -30z"/>
<path d="M115 139 c-22 -27 -25 -40 -23 -83 3 -50 4 -51 36 -54 l32 -3 0 85
c0 47 -4 86 -9 86 -5 0 -21 -14 -36 -31z"/>
<path d="M350 84 l0 -85 33 3 c31 3 32 4 35 54 2 43 -1 56 -23 83 -15 17 -31
31 -36 31 -5 0 -9 -39 -9 -86z"/>
</g>
</svg>
