<?xml version="1.0" standalone="no"?>
<!DOCTYPE svg PUBLIC "-//W3C//DTD SVG 20010904//EN"
 "http://www.w3.org/TR/2001/REC-SVG-20010904/DTD/svg10.dtd">
<svg version="1.0" xmlns="http://www.w3.org/2000/svg"
 width="61.000000pt" height="61.000000pt" viewBox="0 0 61.000000 61.000000"
 preserveAspectRatio="xMidYMid meet">

<g transform="translate(0.000000,61.000000) scale(0.100000,-0.100000)"
fill="#000000" stroke="none">
<path d="M220 544 c-6 -14 -10 -30 -10 -35 0 -5 43 -9 95 -9 52 0 95 4 95 9 0
5 -4 21 -10 35 -9 25 -13 26 -85 26 -72 0 -76 -1 -85 -26z"/>
<path d="M178 473 c-10 -2 -18 -9 -18 -14 0 -5 63 -9 145 -9 134 0 178 9 123
24 -26 7 -224 6 -250 -1z"/>
<path d="M210 415 c0 -8 -4 -15 -10 -15 -5 0 -10 -9 -10 -19 0 -11 5 -23 10
-26 6 -3 10 -15 10 -26 0 -34 53 -79 93 -79 44 0 97 41 97 75 0 13 5 27 10 30
6 3 10 15 10 26 0 10 -4 19 -10 19 -5 0 -10 7 -10 15 0 12 -17 15 -95 15 -78
0 -95 -3 -95 -15z"/>
<path d="M206 263 c-7 -7 38 -43 53 -43 6 0 11 3 11 8 0 10 -57 41 -64 35z"/>
<path d="M368 251 c-29 -16 -36 -31 -17 -31 16 0 61 38 52 43 -4 2 -20 -3 -35
-12z"/>
<path d="M150 241 c0 -5 9 -30 20 -55 19 -46 19 -46 70 -46 l50 0 0 36 c0 31
-2 35 -15 24 -12 -10 -22 -6 -57 19 -42 31 -68 39 -68 22z"/>
<path d="M392 219 c-35 -25 -45 -29 -57 -19 -13 11 -15 7 -15 -24 0 -50 17
-46 82 19 61 61 55 72 -10 24z"/>
<path d="M475 230 c-11 -4 -36 -24 -55 -44 l-34 -36 30 -31 30 -30 42 45 c30
33 42 54 42 76 0 32 -15 37 -55 20z"/>
<path d="M112 218 c-7 -7 -12 -44 -12 -95 l0 -83 35 0 35 0 0 49 c0 27 -9 69
-20 95 -24 52 -22 50 -38 34z"/>
<path d="M190 80 l0 -40 65 0 c44 0 65 4 65 12 0 7 12 25 27 40 l27 28 -92 0
-92 0 0 -40z"/>
<path d="M480 95 c-16 -17 -30 -23 -44 -19 -14 3 -28 -2 -40 -15 -19 -21 -19
-21 47 -21 l67 0 0 40 c0 22 -1 40 -3 40 -2 0 -14 -11 -27 -25z"/>
<path d="M355 78 c-36 -43 -13 -52 26 -10 33 35 35 42 15 42 -8 0 -26 -14 -41
-32z"/>
</g>
</svg>
