<svg width="41" height="41" viewBox="0 0 41 41" fill="none" xmlns="http://www.w3.org/2000/svg">
<path d="M38.4375 7.62856V30.8089C38.4375 32.6219 36.6066 33.8609 34.923 33.1882L19.2188 26.9062V30.75C19.2188 31.4572 18.6448 32.0312 17.9375 32.0312H7.6875C6.98025 32.0312 6.40625 31.4572 6.40625 30.75V25.625C5.699 25.625 5.125 25.051 5.125 24.3437V14.0937C5.125 13.3865 5.699 12.8125 6.40625 12.8125H12.8125C13.5197 12.8125 14.0938 13.3865 14.0938 14.0937V24.3437C14.0938 25.051 13.5197 25.625 12.8125 25.625H8.96875V29.4687H16.6562V25.8812L15.375 25.37V13.0713L34.923 5.24928C36.6066 4.57662 38.4375 5.81559 38.4375 7.62856ZM3.84375 14.0937C2.42797 14.0937 1.28125 15.2405 1.28125 16.6562V21.7812C1.28125 23.197 2.42797 24.3437 3.84375 24.3437V14.0937Z" fill="white"/>
</svg>
