<svg width="98" height="98" viewBox="0 0 98 98" fill="none" xmlns="http://www.w3.org/2000/svg">
<path fill-rule="evenodd" clip-rule="evenodd" d="M35.7292 14.2917C35.7292 12.6003 37.1003 11.2292 38.7917 11.2292H59.2083C60.8997 11.2292 62.2708 12.6003 62.2708 14.2917C62.2708 15.983 60.8997 17.3542 59.2083 17.3542H38.7917C37.1003 17.3542 35.7292 15.983 35.7292 14.2917ZM40.6629 21.4384H57.3357C62.9266 21.4384 67.3566 21.4384 70.8944 21.7982C74.5192 22.167 77.5449 22.9386 80.1918 24.7072C82.3098 26.1223 84.1281 27.9407 85.543 30.0585C87.3115 32.7053 88.0836 35.7308 88.4524 39.3553C88.8125 42.8942 88.8125 47.3263 88.8125 52.9204V53.2532C88.8125 58.8441 88.8125 63.2741 88.4528 66.8119C88.084 70.4363 87.3123 73.4621 85.5438 76.1093C84.1285 78.2269 82.3102 80.0452 80.1926 81.4605C77.5454 83.229 74.5196 84.0007 70.8952 84.3694C67.3574 84.7292 62.9274 84.7292 57.3365 84.7292H40.6636C35.0726 84.7292 30.6426 84.7292 27.1049 84.3694C23.4804 84.0007 20.4545 83.229 17.8076 81.4605C15.6898 80.0452 13.8714 78.2269 12.4563 76.1093C10.6877 73.4621 9.91601 70.4363 9.54732 66.8119C9.18742 63.2741 9.18746 58.8441 9.1875 53.2532V52.9061C9.18746 47.3177 9.18742 42.8893 9.54724 39.3531C9.91589 35.7298 10.6874 32.7049 12.4557 30.0585C13.8708 27.9407 15.6891 26.1223 17.807 24.7072C20.4539 22.9386 23.4798 22.167 27.1044 21.7982C30.6419 21.4384 35.072 21.4384 40.6629 21.4384ZM27.7242 27.8918C24.584 28.2112 22.6826 28.8159 21.2099 29.8C19.7608 30.7682 18.5167 32.0123 17.5485 33.4614C16.5646 34.9338 15.9602 36.8343 15.6408 39.9731C15.3162 43.1633 15.3125 47.2797 15.3125 53.0756V53.0834C15.3125 58.8821 15.3162 63.0005 15.6408 66.1917C15.9603 69.3322 16.565 71.2334 17.549 72.7062C18.5173 74.1554 19.7614 75.3996 21.2105 76.3677C22.6832 77.3518 24.5846 77.9566 27.7248 78.2759C30.9163 78.6005 35.0347 78.6042 40.8333 78.6042H57.1667C62.9654 78.6042 67.0839 78.6005 70.275 78.2759C73.4155 77.9566 75.3167 77.3518 76.7895 76.3677C78.2387 75.3996 79.4829 74.1554 80.4511 72.7062C81.4351 71.2334 82.0399 69.3322 82.3592 66.1917C82.6838 63.0005 82.6875 58.8821 82.6875 53.0834C82.6875 47.2846 82.6838 43.1666 82.3588 39.9754C82.0395 36.8355 81.4343 34.9343 80.4502 33.4614C79.4821 32.0123 78.2379 30.7682 76.7891 29.8C75.3163 28.8159 73.4147 28.2112 70.2746 27.8918C67.083 27.5671 62.9646 27.5634 57.1663 27.5634H40.8327C35.0341 27.5634 30.9157 27.5671 27.7242 27.8918ZM49 43.8959C43.9261 43.8959 39.8125 48.0094 39.8125 53.0834C39.8125 58.1573 43.9261 62.2709 49 62.2709C54.0739 62.2709 58.1875 58.1573 58.1875 53.0834C58.1875 48.0094 54.0739 43.8959 49 43.8959ZM33.6875 53.0834C33.6875 44.6264 40.5431 37.7709 49 37.7709C57.457 37.7709 64.3125 44.6264 64.3125 53.0834C64.3125 61.5403 57.457 68.3959 49 68.3959C40.5431 68.3959 33.6875 61.5403 33.6875 53.0834ZM68.3958 40.8334C68.3958 39.142 69.767 37.7709 71.4583 37.7709H73.5C75.1913 37.7709 76.5625 39.142 76.5625 40.8334C76.5625 42.5247 75.1913 43.8959 73.5 43.8959H71.4583C69.767 43.8959 68.3958 42.5247 68.3958 40.8334Z" fill="#DFE0E4"/>
</svg>
