<svg width="123" height="130" viewBox="0 0 123 130" fill="none" xmlns="http://www.w3.org/2000/svg">
<path d="M75.5852 60.2956C78.4333 60.2956 80.7406 58.1786 80.7406 55.5675C80.7406 52.9555 78.4333 50.8385 75.5852 50.8385C75.1689 50.8385 74.7673 50.8966 74.3792 50.9822C74.7559 51.4652 74.9891 52.0661 74.9891 52.7293C74.9891 54.2961 73.7299 55.5675 72.1796 55.5675C71.5439 55.5675 70.9612 55.3461 70.4925 54.9862C70.4664 55.1781 70.4279 55.3688 70.4279 55.5675C70.4279 58.1786 72.7351 60.2956 75.5852 60.2956Z" fill="black"/>
<path d="M54.9408 60.2956C57.7893 60.2956 60.0982 58.1786 60.0982 55.5675C60.0982 52.9555 57.7893 50.8385 54.9408 50.8385C54.332 50.8385 53.7583 50.9521 53.2169 51.1307C53.5245 51.5847 53.707 52.1343 53.707 52.7293C53.707 54.2961 52.4488 55.5675 50.8971 55.5675C50.5117 55.5675 50.142 55.4894 49.8077 55.3461C49.8041 55.4207 49.7832 55.4925 49.7832 55.5675C49.7832 58.1786 52.0916 60.2956 54.9408 60.2956Z" fill="black"/>
<path d="M99.2401 36.7529C99.2401 35.0148 98.1796 34.7262 97.6639 34.7262H96.0072C95.914 33.617 95.8021 32.491 95.8021 31.3495C95.8021 20.9222 88.9461 11.6876 80.907 5.98617C80.9018 6.21767 80.9103 6.44916 80.8998 6.68012C80.8631 7.48542 80.8245 8.29127 80.7857 9.09301C80.7303 9.89464 80.6237 10.6889 80.541 11.4779C80.3987 13.0569 80.0934 14.592 79.8162 16.0742C79.5233 17.5539 79.1468 18.967 78.7775 20.2976C78.3644 21.6193 77.9764 22.8632 77.5245 23.9872C76.6753 26.2447 75.7349 28.043 75.0279 29.2664C74.3208 30.4918 73.8125 31.136 73.8125 31.136C73.8125 31.136 73.8251 30.9341 73.8439 30.5526C73.8773 30.1785 73.8773 29.6162 73.9391 28.9271C74.0217 27.5563 74.143 25.5974 74.2853 23.2474C74.4495 20.928 74.6074 18.244 74.7811 15.3952C74.8511 13.9716 74.9285 12.5015 75.0038 11.0086C75.0415 10.2645 75.0781 9.51249 75.1168 8.75946C75.1357 8.00642 75.1555 7.24971 75.1743 6.493C75.2622 5.21095 75.2549 3.93216 75.2789 2.66127C71.7771 0.987667 68.2973 0.0406928 65.262 0C62.2267 0.0406928 58.7469 0.987667 55.2452 2.66127C55.2692 3.93216 55.2619 5.21095 55.3497 6.493C55.3686 7.24971 55.3885 8.00642 55.4072 8.75946C55.446 9.51249 55.4825 10.2645 55.5202 11.0086C55.5955 12.5015 55.673 13.9716 55.743 15.3952C55.9166 18.244 56.0746 20.928 56.2388 23.2474C56.381 25.5974 56.5024 27.5563 56.585 28.9271C56.6468 29.6162 56.6467 30.1785 56.6802 30.5526C56.699 30.9341 56.7115 31.136 56.7115 31.136C56.7115 31.136 56.2032 30.4918 55.4961 29.2664C54.7892 28.043 53.8489 26.2447 52.9996 23.9872C52.5477 22.8632 52.1597 21.6193 51.7466 20.2976C51.3773 18.967 51.0008 17.5539 50.7079 16.0742C50.4307 14.592 50.1253 13.0569 49.9831 11.4779C49.9004 10.6889 49.7937 9.89464 49.7384 9.09301C49.6996 8.29127 49.6609 7.48542 49.6243 6.68012C49.6138 6.44916 49.6223 6.21767 49.617 5.98617C41.578 11.6876 34.722 20.9222 34.722 31.3495C34.722 32.491 34.61 33.617 34.5168 34.7262H32.8602C32.3445 34.7262 31.2839 35.0148 31.2839 36.7529V45.3406H34.6215C34.5692 46.2072 34.5315 47.0771 34.5315 47.9591C34.5315 68.0326 47.9979 83.7786 65.262 84.0191C82.5261 83.7786 95.9926 68.0326 95.9926 47.9591C95.9926 47.0771 95.9548 46.2072 95.9026 45.3406H99.2401V36.7529ZM65.262 80.5462C49.9245 80.3025 37.9685 66.0805 37.9685 47.9591C37.9685 47.076 38.0113 46.2062 38.0679 45.3406H92.4562C92.5128 46.2062 92.5556 47.076 92.5556 47.9591C92.5556 66.0805 80.5996 80.3025 65.262 80.5462Z" fill="#5F49E5"/>
<path fill-rule="evenodd" clip-rule="evenodd" d="M38.6145 87.8247C19.6929 101.034 -13.0093 127.667 7.55452 128.524C26.9657 129.333 72.0295 128.92 99.39 128.669C108.261 128.588 115.271 128.524 118.942 128.524C130.938 128.524 106.09 101.391 92.1662 87.8247H38.6145ZM63.3611 103.819V124.24H68.2004V120.063H65.7808V115.422H68.2004V111.709H65.7808V103.819C67.3939 104.593 70.7168 105.304 71.104 101.963C71.1814 101.294 71.2837 100.649 71.381 100.035C71.8915 96.8167 72.2649 94.4626 68.2004 94.0728C66.6319 93.9224 64.9616 93.4306 63.4204 92.9769C60.2067 92.0307 57.554 91.2497 57.554 94.0728C57.554 95.6998 57.2603 96.9748 57.0161 98.0348C56.6334 99.696 56.3724 100.829 57.554 101.963C59.1026 103.448 62.0707 103.819 63.3611 103.819Z" fill="black"/>
<path d="M7.55452 128.524L7.5337 129.024L7.55452 128.524ZM38.6145 87.8247V87.3247H38.4572L38.3283 87.4147L38.6145 87.8247ZM99.39 128.669L99.3854 128.169L99.39 128.669ZM92.1662 87.8247L92.5151 87.4666L92.3695 87.3247H92.1662V87.8247ZM63.3611 124.24H62.8611V124.74H63.3611V124.24ZM63.3611 103.819H63.8611V103.319H63.3611V103.819ZM68.2004 124.24V124.74H68.7004V124.24H68.2004ZM68.2004 120.063H68.7004V119.563H68.2004V120.063ZM65.7808 120.063H65.2808V120.563H65.7808V120.063ZM65.7808 115.422V114.922H65.2808V115.422H65.7808ZM68.2004 115.422V115.922H68.7004V115.422H68.2004ZM68.2004 111.709H68.7004V111.209H68.2004V111.709ZM65.7808 111.709H65.2808V112.209H65.7808V111.709ZM65.7808 103.819L65.997 103.368L65.2808 103.025V103.819H65.7808ZM71.104 101.963L70.6073 101.905V101.905L71.104 101.963ZM71.381 100.035L70.8872 99.957V99.957L71.381 100.035ZM68.2004 94.0728L68.2481 93.5751L68.2004 94.0728ZM63.4204 92.9769L63.2792 93.4565L63.4204 92.9769ZM57.0161 98.0348L57.5034 98.1471V98.1471L57.0161 98.0348ZM57.554 101.963L57.9001 101.602L57.554 101.963ZM7.57533 128.024C5.04035 127.919 3.43401 127.416 2.52282 126.682C1.65624 125.983 1.35251 125.018 1.56464 123.743C1.78192 122.437 2.54004 120.846 3.76991 119.034C4.99401 117.229 6.6585 115.243 8.64051 113.15C16.5752 104.771 29.4478 94.8339 38.9007 88.2347L38.3283 87.4147C28.8596 94.0249 15.9202 104.009 7.91442 112.463C5.91129 114.578 4.2076 116.607 2.94239 118.472C1.68294 120.329 0.830609 122.061 0.578194 123.579C0.320628 125.127 0.687974 126.487 1.89513 127.46C3.05766 128.398 4.92772 128.915 7.5337 129.024L7.57533 128.024ZM99.3854 128.169C72.0169 128.42 26.9703 128.833 7.57533 128.024L7.5337 129.024C26.9612 129.833 72.0421 129.42 99.3946 129.169L99.3854 128.169ZM118.942 128.024C115.268 128.024 108.255 128.088 99.3854 128.169L99.3946 129.169C108.267 129.088 115.274 129.024 118.942 129.024V128.024ZM91.8173 88.1828C98.7721 94.9593 108.445 105.114 114.876 113.565C118.102 117.804 120.468 121.558 121.3 124.221C121.719 125.566 121.706 126.503 121.373 127.083C121.062 127.623 120.366 128.024 118.942 128.024V129.024C120.517 129.024 121.668 128.577 122.24 127.581C122.79 126.624 122.695 125.335 122.254 123.924C121.365 121.076 118.898 117.199 115.672 112.959C109.197 104.451 99.4837 94.2565 92.5151 87.4666L91.8173 88.1828ZM38.6145 88.3247H92.1662V87.3247H38.6145V88.3247ZM63.8611 124.24V103.819H62.8611V124.24H63.8611ZM68.2004 123.74H63.3611V124.74H68.2004V123.74ZM67.7004 120.063V124.24H68.7004V120.063H67.7004ZM65.7808 120.563H68.2004V119.563H65.7808V120.563ZM65.2808 115.422V120.063H66.2808V115.422H65.2808ZM68.2004 114.922H65.7808V115.922H68.2004V114.922ZM67.7004 111.709V115.422H68.7004V111.709H67.7004ZM65.7808 112.209H68.2004V111.209H65.7808V112.209ZM65.2808 103.819V111.709H66.2808V103.819H65.2808ZM70.6073 101.905C70.5203 102.656 70.2761 103.124 69.9822 103.418C69.6871 103.713 69.2967 103.877 68.8365 103.938C67.8919 104.063 66.7611 103.735 65.997 103.368L65.5646 104.27C66.4136 104.677 67.7508 105.091 68.9677 104.93C69.5882 104.848 70.202 104.612 70.6892 104.125C71.1777 103.636 71.494 102.94 71.6006 102.02L70.6073 101.905ZM70.8872 99.957C70.7901 100.569 70.6862 101.224 70.6073 101.905L71.6006 102.02C71.6767 101.363 71.7773 100.729 71.8749 100.114L70.8872 99.957ZM68.1527 94.5705C69.1268 94.6639 69.782 94.871 70.2215 95.1419C70.6469 95.4041 70.8929 95.7395 71.0326 96.1532C71.1778 96.5835 71.2135 97.1166 71.172 97.7689C71.1305 98.4203 71.0158 99.1462 70.8872 99.957L71.8749 100.114C72.0015 99.3152 72.1249 98.5399 72.17 97.8324C72.215 97.1259 72.1857 96.4427 71.9801 95.8334C71.7688 95.2075 71.378 94.68 70.7462 94.2906C70.1286 93.9099 69.3062 93.6765 68.2481 93.5751L68.1527 94.5705ZM63.2792 93.4565C64.8101 93.9072 66.5277 94.4147 68.1527 94.5705L68.2481 93.5751C66.736 93.43 65.1132 92.954 63.5617 92.4972L63.2792 93.4565ZM58.054 94.0728C58.054 93.4374 58.2036 93.1055 58.3781 92.9251C58.5523 92.745 58.8362 92.6282 59.3006 92.611C59.7663 92.5938 60.348 92.68 61.0353 92.8391C61.7188 92.9972 62.4722 93.2189 63.2792 93.4565L63.5617 92.4972C62.7619 92.2617 61.9785 92.0309 61.2608 91.8648C60.5469 91.6996 59.8628 91.5895 59.2636 91.6117C58.6631 91.6339 58.083 91.792 57.6594 92.2299C57.2361 92.6674 57.054 93.2966 57.054 94.0728H58.054ZM57.5034 98.1471C57.7481 97.0848 58.054 95.7615 58.054 94.0728H57.054C57.054 95.6382 56.7726 96.8648 56.5289 97.9226L57.5034 98.1471ZM57.9001 101.602C57.3981 101.12 57.2252 100.672 57.1977 100.169C57.1678 99.6221 57.3071 98.9991 57.5034 98.1471L56.5289 97.9226C56.3425 98.7317 56.1599 99.506 56.1992 100.224C56.2409 100.987 56.5283 101.672 57.208 102.323L57.9001 101.602ZM63.3611 103.319C62.754 103.319 61.7309 103.231 60.6774 102.963C59.6151 102.693 58.5835 102.257 57.9001 101.602L57.208 102.323C58.0732 103.153 59.2999 103.645 60.4314 103.932C61.5717 104.222 62.6778 104.319 63.3611 104.319V103.319Z" fill="white"/>
<path d="M73.8302 119.956C80.2564 117.814 84.5405 116.743 84.5405 119.956M59.9068 119.956C58.4787 118.171 54.98 114.815 52.4095 115.672" stroke="white"/>
<circle cx="63.12" cy="98.535" r="2.14207" fill="black"/>
</svg>
