<svg width="362" height="362" viewBox="0 0 362 362" fill="none" xmlns="http://www.w3.org/2000/svg">
<path d="M279.826 164.71H259.916V141.904C259.916 111.858 242.902 85.794 218.286 72.4V111.858C218.286 132.13 201.634 148.782 181.362 148.782C161.09 148.782 144.438 132.13 144.438 111.858V72.038C119.098 85.07 101.722 111.496 101.722 142.266V165.072H81.8118C76.3818 165.072 71.6758 169.416 71.6758 175.208V177.018C71.6758 182.448 76.0198 187.154 81.8118 187.154H279.464C284.894 187.154 289.6 182.81 289.6 177.018V175.208C289.962 169.416 285.256 164.71 279.826 164.71Z" fill="#25D483"/>
<path d="M181.362 127.062C189.688 127.062 196.566 120.184 196.566 111.858V64.436C191.498 63.35 186.43 62.988 181 62.988C175.932 62.988 171.226 63.35 166.52 64.436V111.858C166.52 120.184 173.036 127.062 181.362 127.062Z" fill="#25D483"/>
<path d="M181 327.292C135.026 327.292 97.7402 286.386 97.7402 236.43H119.46C119.46 274.44 146.972 305.572 181 305.572C215.028 305.572 242.54 274.44 242.54 236.43H264.26C264.26 286.386 226.974 327.292 181 327.292Z" fill="#25D483"/>
<path d="M225.294 199.199C226.094 198.216 227.249 197.586 228.509 197.446C229.769 197.306 231.034 197.666 232.03 198.45C233.027 199.234 233.676 200.378 233.837 201.635C233.998 202.893 233.659 204.163 232.892 205.173L181.548 270.491C180.883 271.336 180.038 272.023 179.075 272.502C178.112 272.98 177.055 273.239 175.979 273.258C174.904 273.278 173.838 273.058 172.858 272.614C171.879 272.17 171.01 271.514 170.315 270.694L145.646 241.539C145.218 241.057 144.892 240.495 144.685 239.885C144.478 239.275 144.396 238.63 144.442 237.988C144.488 237.345 144.661 236.719 144.953 236.145C145.245 235.57 145.648 235.06 146.139 234.644C146.631 234.228 147.201 233.914 147.815 233.721C148.429 233.529 149.076 233.46 149.717 233.521C150.358 233.582 150.981 233.77 151.548 234.074C152.116 234.379 152.616 234.794 153.021 235.294L175.777 262.187L225.294 199.199Z" fill="#25D483"/>
</svg>
