<svg width="51" height="51" viewBox="0 0 51 51" fill="none" xmlns="http://www.w3.org/2000/svg">
<path d="M22.5999 2.7C23.4999 6.6 23.8999 7 26.0999 7C27.2999 7 27.9999 6.3 27.9999 5.1C27.9999 4 28.2999 2.5 28.5999 1.6C29.0999 0.299999 28.4999 -4.76837e-07 25.5999 -4.76837e-07C22.0999 -4.76837e-07 21.9999 0.0999994 22.5999 2.7Z" fill="black"/>
<path d="M17.2 7.5C16 9 15 10.7 15 11.1C15 11.6 14.3 12 13.5 12C12.7 12 12 12.4 12 13C12 13.6 17.2 14 25.5 14C33.8 14 39 13.6 39 13C39 12.4 38.3 12 37.5 12C36.7 12 36 11.6 36 11.1C36 10.7 35 9 33.8 7.5L31.7 4.8L30.3 7.4C28.3 11.1 22.7 11.1 20.7 7.4L19.3 4.8L17.2 7.5Z" fill="black"/>
<path d="M15 20.1C15 24.7 20.6 30 25.5 30C30.4 30 36 24.7 36 20.1V17H25.5H15V20.1Z" fill="black"/>
<path d="M20 33.8C20 34.5 21.1 35.6 22.5 36.2C25.5 37.6 30.3 36.3 30.8 34C31 32.8 29.9 32.5 25.5 32.5C21.7 32.5 20 32.9 20 33.8Z" fill="black"/>
<path d="M10.4 36.4C7.60001 38.4 5.80001 43 6.20001 47.1C6.40001 49.7 7.00001 50.6 8.80001 50.8C10.5 51.1 11 50.6 11 49C11 47.8 11.5 46 12.1 44.9C12.6 43.8 13 41.1 12.8 38.9C12.5 35.1 12.4 35 10.4 36.4Z" fill="black"/>
<path d="M17 39V43H25.5H34V39V35.1L31.5 37.5C29.9 39.2 28 40 25.5 40C23 40 21.1 39.2 19.5 37.5L17 35.1V39Z" fill="black"/>
<path d="M38 38.5C38 40.4 38.5 44 39.2 46.5C40.2 50.2 40.8 51 42.5 50.8C46.8 50.2 44.9 38.6 40 36C38.2 35 38 35.2 38 38.5Z" fill="black"/>
<path d="M15 48.5V51H25.5H36V48.5V46H25.5H15V48.5Z" fill="black"/>
</svg>
