<svg width="51" height="51" viewBox="0 0 51 51" fill="none" xmlns="http://www.w3.org/2000/svg">
<g clip-path="url(#clip0_347_253)">
<path d="M22.8002 4.69999C22.4002 10.5 19.8002 11.5 19.0002 6.19999C18.5002 3.09999 18.4002 2.99999 16.4002 4.39999C15.2002 5.29999 13.7002 7.29999 13.0002 8.99999C12.3002 10.6 11.1002 12 10.3002 12C9.50016 12 9.00016 12.6 9.30016 13.2C9.80016 15 41.2002 15 41.8002 13.2C42.0002 12.6 41.5002 12 40.7002 12C39.9002 12 38.7002 10.6 38.0002 8.99999C37.3002 7.29999 35.8002 5.29999 34.6002 4.39999C32.6002 2.99999 32.5002 3.09999 32.0002 6.19999C31.2002 11.5 28.6002 10.5 28.2002 4.69999C27.9002 0.499987 27.6002 -1.33514e-05 25.5002 -1.33514e-05C23.4002 -1.33514e-05 23.1002 0.499987 22.8002 4.69999Z" fill="black"/>
<path d="M12.3 19.7C11.9 20.7 12.4 21.9 13.7 22.9C14.8 23.8 16.3 25.6 16.9 26.8C17.6 28.1 19.6 30 21.3 31C24.2 32.8 24.3 33 22.3 33C20.1 33 20 33.3 20 42V51H25.5H31V42C31 33.3 30.9 33 28.8 33C26.7 33 26.8 32.8 29.7 31C31.4 30 33.4 28.1 34.1 26.8C34.7 25.6 36.2 23.8 37.3 22.9C38.6 21.9 39.1 20.7 38.7 19.7C38.2 18.2 36.3 18 25.5 18C14.7 18 12.8 18.2 12.3 19.7ZM28 41.6C28 43.9 26.8 46 25.5 46C23.6 46 22.5 40.3 24.1 38.4C25.3 37 25.5 37 26.7 38.6C27.4 39.6 28 40.9 28 41.6Z" fill="black"/>
<path d="M11.5001 37.1C9.30008 39.8 9.00008 41.1 9.20008 45.4C9.50008 50.4 9.60008 50.5 12.8001 50.8L16.0001 51.1V42.6C16.0001 37.9 15.6001 34 15.1001 34C14.6001 34 13.0001 35.4 11.5001 37.1Z" fill="black"/>
<path d="M35 42.6V51.1L38.3 50.8C41.4 50.5 41.5 50.4 41.8 45.4C42 41.1 41.7 39.8 39.5 37.1C38 35.4 36.4 34 35.9 34C35.4 34 35 37.9 35 42.6Z" fill="black"/>
</g>
<defs>
<clipPath id="clip0_347_253">
<rect width="51" height="51" fill="white"/>
</clipPath>
</defs>
</svg>
