<svg width="15" height="21" viewBox="0 0 15 21" fill="none" xmlns="http://www.w3.org/2000/svg">
<path d="M7.5 0C3.35732 0 0 3.10658 0 6.93976C0 10.8519 2.09558 11.6854 4.41177 14.2878C7.18217 17.4006 7.5 20.6152 7.5 20.6152C7.5 20.6152 7.81783 17.4006 10.5882 14.2878C12.9044 11.6854 15 10.8519 15 6.9398C15 3.10658 11.6427 0 7.5 0ZM7.5 9.33809C6.0685 9.33809 4.9081 8.26433 4.9081 6.9398C4.9081 5.61527 6.06854 4.54151 7.5 4.54151C8.93146 4.54151 10.0919 5.61527 10.0919 6.9398C10.0919 8.26433 8.93146 9.33809 7.5 9.33809Z" fill="#8C8C8C"/>
</svg>
