<?xml version="1.0" encoding="iso-8859-1"?>
<!-- Uploaded to: SVG Repo, www.svgrepo.com, Generator: SVG Repo Mixer Tools -->
<svg fill="#000000" height="800px" width="800px" version="1.1" id="Capa_1" xmlns="http://www.w3.org/2000/svg" xmlns:xlink="http://www.w3.org/1999/xlink" 
	 viewBox="0 0 463.005 463.005" xml:space="preserve">
<g>
	<path d="M398.904,349.625c-0.157-0.04-0.314-0.073-0.474-0.103l-23.699-4.323c-1.432-9.67-8.812-17.66-18.62-19.621l-11.258-2.252
		c-6.207-1.24-12.516,0.027-17.762,3.57c-1.818,1.228-3.415,2.689-4.794,4.316c-0.54-6.999-4.189-13.651-10.384-17.78l-11.384-7.59
		c25.853-24.837,42.473-63.272,42.473-106.338v-2.185c51.076-10.094,72.277-24.581,73.597-25.511
		c2.485-1.752,3.666-4.832,2.99-7.797c-0.677-2.965-3.076-5.228-6.075-5.729l-78.512-13.128v-16.65c0-4.026-2.816-7.399-6.58-8.273
		l-15.401-97.545c-1.138-7.206-5.041-13.5-10.99-17.721c-5.949-4.222-13.178-5.829-20.356-4.523l-50.172,9.122l-50.172-9.122
		c-7.179-1.305-14.406,0.302-20.356,4.523c-5.949,4.222-9.853,10.515-10.99,17.721l-15.401,97.545
		c-3.764,0.874-6.58,4.247-6.58,8.273v16.65l-78.512,13.128c-2.999,0.501-5.398,2.765-6.075,5.729
		c-0.676,2.965,0.505,6.044,2.99,7.797c1.319,0.931,22.52,15.417,73.597,25.511v2.185c0,43.066,16.62,81.501,42.473,106.338
		l-11.384,7.59c-6.194,4.129-9.844,10.781-10.383,17.781c-1.379-1.628-2.976-3.089-4.794-4.317
		c-5.245-3.543-11.556-4.812-17.762-3.57l-11.258,2.252c-9.808,1.962-17.187,9.952-18.62,19.621l-23.699,4.323
		c-0.159,0.029-0.316,0.063-0.474,0.103c-28.319,7.08-48.099,32.413-48.099,61.604v28.276c0,12.958,10.542,23.5,23.5,23.5h384
		c12.958,0,23.5-10.542,23.5-23.5v-28.276C447.003,382.038,427.223,356.705,398.904,349.625z M331.889,344.804
		c0.423-2.25,1.7-4.196,3.598-5.478s4.177-1.741,6.425-1.291l11.258,2.252c3.959,0.792,6.833,4.297,6.833,8.334v99.383h-47.464
		L331.889,344.804z M306.485,336.779c-11.155,22.327-22.969,45.963-29.198,58.414c-12.863-11.311-24.587-18.251-32.629-22.236
		l51.801-51.8l7.135,4.757C307.152,328.286,308.395,332.957,306.485,336.779z M143.003,135.005h177v9h-177V135.005z M164.801,25.027
		c0.503-3.183,2.227-5.963,4.855-7.828c2.628-1.865,5.82-2.573,8.991-1.999l51.329,9.333c7.897,1.731,19.262,9.001,22.98,11.662
		c1.324,0.949,2.852,1.406,4.365,1.406c2.334,0,4.636-1.087,6.101-3.129c2.414-3.366,1.643-8.051-1.724-10.466
		c-0.551-0.395-2.595-1.839-5.533-3.679l28.192-5.126c3.172-0.575,6.364,0.134,8.991,1.999c2.629,1.865,4.353,4.645,4.855,7.828
		l14.996,94.979H149.804L164.801,25.027z M136.214,158.991c0.097,0.003,0.191,0.015,0.289,0.015h190
		c0.097,0,0.192-0.011,0.289-0.015l60.937,10.189c-24.813,9.574-74.012,22.826-156.226,22.826
		c-82.229,0-131.43-13.256-156.229-22.825L136.214,158.991z M135.008,200.004c14.315,2.303,30.592,4.219,48.995,5.46v10.041
		c0,4.142,3.357,7.5,7.5,7.5s7.5-3.358,7.5-7.5v-9.207c10.236,0.454,21.051,0.707,32.5,0.707s22.264-0.253,32.5-0.707v9.207
		c0,4.142,3.357,7.5,7.5,7.5s7.5-3.358,7.5-7.5v-10.041c18.403-1.242,34.68-3.157,48.995-5.46
		c-0.217,66.215-43.418,120.001-96.495,120.001S135.224,266.219,135.008,200.004z M231.503,335.005
		c13.338,0,26.136-2.865,38.001-8.108l-38.001,38.001l-38.001-38.001C205.367,332.141,218.164,335.005,231.503,335.005z
		 M159.412,325.913l7.135-4.757l51.801,51.8c-8.042,3.985-19.766,10.925-32.629,22.236c-4.522-9.038-13.217-26.428-29.199-58.414
		C154.61,332.957,155.853,328.286,159.412,325.913z M175.805,408.896c1.452,2.896,2.707,5.396,6.495,6.012
		c0.4,0.065,0.803,0.097,1.202,0.097c1.956,0,3.854-0.766,5.269-2.162c13.8-13.618,26.796-21.614,35.231-25.915v36.576
		c0,4.142,3.357,7.5,7.5,7.5s7.5-3.358,7.5-7.5V386.93c8.44,4.303,21.434,12.298,35.231,25.914c1.415,1.396,3.313,2.162,5.269,2.162
		c0.399,0,0.802-0.032,1.202-0.097c3.788-0.615,5.043-3.116,6.495-6.012l11.644-23.273c5.203-10.408,11.177-22.362,16.215-32.444
		l-17.78,94.826H165.727l-17.781-94.833L175.805,408.896z M109.836,340.288l11.258-2.252c2.245-0.449,4.527,0.009,6.425,1.291
		c1.897,1.282,3.175,3.227,3.598,5.478l19.35,103.201h-47.464v-99.383C103.003,344.584,105.877,341.079,109.836,340.288z
		 M31.003,439.505v-28.276c0-22.218,15.001-41.51,36.511-46.995l20.489-3.737v87.508h-48.5
		C34.816,448.005,31.003,444.192,31.003,439.505z M432.003,439.505c0,4.687-3.813,8.5-8.5,8.5h-48.5v-87.508l20.489,3.737
		c21.51,5.485,36.511,24.776,36.511,46.995V439.505z"/>
	<path d="M195.283,277.486c8.89,6.05,22.091,9.52,36.22,9.52c14.128,0,27.329-3.47,36.22-9.519c3.424-2.33,4.312-6.996,1.98-10.42
		c-2.329-3.424-6.993-4.313-10.42-1.981c-6.368,4.333-16.753,6.92-27.78,6.92c-11.028,0-21.413-2.587-27.78-6.92
		c-3.423-2.331-8.089-1.443-10.42,1.98C190.971,270.49,191.859,275.156,195.283,277.486z"/>
</g>
</svg>