<svg width="115" height="145" viewBox="0 0 115 145" fill="none" xmlns="http://www.w3.org/2000/svg">
<g clip-path="url(#clip0_70_81)">
<path d="M68.5842 64.7859C71.6423 64.7859 74.1197 62.5112 74.1197 59.7057C74.1197 56.8992 71.6423 54.6245 68.5842 54.6245C68.1372 54.6245 67.706 54.687 67.2893 54.7789C67.6938 55.2979 67.9441 55.9435 67.9441 56.6561C67.9441 58.3396 66.5921 59.7057 64.9276 59.7057C64.2449 59.7057 63.6193 59.4678 63.1161 59.0811C63.088 59.2873 63.0466 59.4922 63.0466 59.7057C63.0466 62.5112 65.524 64.7859 68.5842 64.7859Z" fill="black"/>
<path d="M46.418 64.7859C49.4765 64.7859 51.9557 62.5112 51.9557 59.7057C51.9557 56.8992 49.4765 54.6245 46.418 54.6245C45.7643 54.6245 45.1484 54.7466 44.567 54.9385C44.8973 55.4263 45.0933 56.0168 45.0933 56.6561C45.0933 58.3396 43.7422 59.7057 42.0761 59.7057C41.6624 59.7057 41.2654 59.6217 40.9065 59.4678C40.9026 59.5479 40.8801 59.6251 40.8801 59.7057C40.8801 62.5112 43.3587 64.7859 46.418 64.7859Z" fill="black"/>
<path d="M111.173 95.3021C111.173 85.4092 102.628 77.392 92.0887 77.392H88.0042C81.1514 88.262 70.2735 96.3003 57.5 96.3661C44.7259 96.3003 33.8486 88.262 26.9958 77.392H22.9118C12.3709 77.392 3.82789 85.4092 3.82789 95.3021L0 127.09C0 136.98 8.54404 145 19.0839 145H79.6745V127.039C75.125 125.018 71.9424 120.426 71.9424 115.077C71.9424 109.983 74.6455 105.697 78.8491 103.541C79.4016 103.26 80.1788 103.672 79.7823 104.46C79.5162 105.088 79.3837 105.124 79.0333 106.064C78.684 107.006 77.9821 111.063 78.4684 113.196C78.9591 115.329 81.8925 118.962 85.0438 118.962C85.0864 118.962 85.1258 118.958 85.1674 118.955C85.1674 118.955 85.2808 118.962 85.3234 118.962C88.4747 118.962 91.4092 115.329 91.8989 113.196C92.3863 111.063 91.6843 107.006 91.3351 106.064C90.9825 105.122 90.8545 105.086 90.5861 104.458C90.1896 103.672 90.9656 103.259 91.5182 103.541C95.7229 105.695 98.4249 109.983 98.4249 115.077C98.4249 120.329 95.3534 124.845 90.9353 126.92V145H95.916C106.456 145 115 136.98 115 127.09L111.173 95.3021Z" fill="black"/>
<path d="M93.9832 39.4899C93.9832 37.6223 92.8445 37.3123 92.2907 37.3123H90.5119C90.4119 36.1205 90.2917 34.9106 90.2917 33.6841C90.2917 22.4803 82.9302 12.558 74.2984 6.43197C74.2928 6.6807 74.3019 6.92944 74.2906 7.17759C74.2513 8.04287 74.2097 8.90873 74.1681 9.77017C74.1086 10.6315 73.9941 11.4849 73.9053 12.3326C73.7526 14.0292 73.4247 15.6786 73.1271 17.2713C72.8126 18.8611 72.4084 20.3795 72.0119 21.8092C71.5683 23.2293 71.1517 24.5658 70.6665 25.7736C69.7546 28.1992 68.7449 30.1314 67.9858 31.4459C67.2266 32.7626 66.6808 33.4547 66.6808 33.4547C66.6808 33.4547 66.6943 33.2378 66.7145 32.8279C66.7504 32.4259 66.7504 31.8217 66.8167 31.0813C66.9054 29.6084 67.0357 27.5037 67.1884 24.9786C67.3647 22.4865 67.5343 19.6027 67.7207 16.5417C67.796 15.0121 67.8791 13.4325 67.9599 11.8284C68.0004 11.029 68.0396 10.2209 68.0813 9.41178C68.1015 8.60266 68.1228 7.7896 68.143 6.97653C68.2373 5.59902 68.2295 4.22499 68.2553 2.85945C64.4953 1.06122 60.759 0.0437232 57.4999 0C54.2408 0.0437232 50.5044 1.06122 46.7445 2.85945C46.7703 4.22499 46.7625 5.59902 46.8568 6.97653C46.877 7.7896 46.8984 8.60266 46.9185 9.41178C46.9601 10.2209 46.9994 11.029 47.0398 11.8284C47.1207 13.4325 47.2038 15.0121 47.279 16.5417C47.4654 19.6027 47.6351 22.4865 47.8114 24.9786C47.9641 27.5037 48.0944 29.6084 48.1831 31.0813C48.2494 31.8217 48.2494 32.4259 48.2853 32.8279C48.3055 33.2378 48.319 33.4547 48.319 33.4547C48.319 33.4547 47.7732 32.7626 47.014 31.4459C46.2548 30.1314 45.2453 28.1992 44.3333 25.7736C43.8481 24.5658 43.4315 23.2293 42.9879 21.8092C42.5914 20.3795 42.1872 18.8611 41.8727 17.2713C41.575 15.6786 41.2472 14.0292 41.0944 12.3326C41.0057 11.4849 40.8911 10.6315 40.8317 9.77017C40.79 8.90873 40.7485 8.04287 40.7092 7.17759C40.6979 6.92944 40.707 6.6807 40.7014 6.43197C32.0696 12.558 24.7081 22.4803 24.7081 33.6841C24.7081 34.9106 24.5879 36.1205 24.4879 37.3123H22.7091C22.1553 37.3123 21.0166 37.6223 21.0166 39.4899V48.7171H24.6002C24.5441 49.6483 24.5036 50.5829 24.5036 51.5306C24.5036 73.099 38.9629 90.0177 57.4999 90.2761C76.0369 90.0177 90.4961 73.099 90.4961 51.5306C90.4961 50.5829 90.4557 49.6483 90.3996 48.7171H93.9832V39.4899ZM57.4999 86.5445C41.0315 86.2827 28.194 71.0015 28.194 51.5306C28.194 50.5817 28.24 49.6472 28.3007 48.7171H86.6991C86.7598 49.6472 86.8058 50.5817 86.8058 51.5306C86.8058 71.0015 73.9682 86.2827 57.4999 86.5445Z" fill="#5F49E5"/>
</g>
<defs>
<clipPath id="clip0_70_81">
<rect width="115" height="145" fill="white"/>
</clipPath>
</defs>
</svg>
