<svg width="44" height="55" viewBox="0 0 44 55" fill="none" xmlns="http://www.w3.org/2000/svg">
<g clip-path="url(#clip0_209_57)">
<path d="M23.8829 40.8855L25.7365 52.9533H27.9568L31.4055 35.0034C31.0663 34.9782 30.7292 34.9534 30.3842 34.9534H29.2724C27.0994 36.0524 24.6275 36.6802 22.0003 36.6802C19.373 36.6802 16.9 36.0524 14.7287 34.9534H13.6169C13.2702 34.9534 12.9332 34.9782 12.5956 35.0034L16.0443 52.9533H18.2629L20.1165 40.8855H20.1814L18.3619 37.5724H25.6375L23.818 40.8855H23.8829Z" fill="white"/>
<path d="M31.4056 35.0034L27.9568 52.9532H16.0444L12.5956 35.0034C5.55404 35.5228 0 41.3358 0 48.4503V55H44V48.4503C44 41.3358 38.4465 35.5228 31.4056 35.0034Z" fill="black"/>
<path d="M18.2629 52.9533H25.7366L23.883 40.8855H23.8181L25.6376 37.5724H18.362L20.1814 40.8855H20.1166L18.2629 52.9533Z" fill="#715CEE"/>
<path d="M3.01367 20.9035V22.0787C3.01367 24.0904 4.72896 25.7246 6.83704 25.7246H7.06189C8.21188 29.7214 11.0674 33.0488 14.8316 34.9534C17.0029 36.0524 19.4759 36.6802 22.1032 36.6802C24.7304 36.6802 27.2023 36.0524 29.3753 34.9534C33.1394 33.0488 35.9933 29.7214 37.1433 25.7246H37.3681C39.4763 25.7246 41.1915 24.0904 41.1915 22.0787V20.9035C41.1915 19.1617 39.9009 17.7092 38.184 17.3497C38.2443 16.826 38.2859 16.2967 38.2859 15.755L38.2785 15.6026C38.2813 15.2166 38.2682 14.8176 38.2164 14.389V14.3876C37.9813 11.9021 37.108 9.60001 35.7599 7.64582C35.0654 6.63798 34.2365 5.72943 33.3125 4.92978C30.8424 2.78936 27.6406 1.46608 24.1225 1.38228L23.9448 1.24284C23.7934 1.07839 23.6277 1.04904 23.5156 1.04904C23.252 1.04904 23.067 1.22227 22.9173 1.36449H22.8689C22.0195 0.520817 21.3807 0 20.8331 0H20.8302C20.3082 0.0397494 17.8597 0.901164 17.078 1.48352C16.9038 1.61278 16.7097 1.7784 16.5042 1.96181C10.493 3.72103 6.10438 9.22758 6.10438 15.755C6.10438 15.8549 6.11178 15.9531 6.11348 16.0512C6.10549 16.4903 6.1203 16.9231 6.16187 17.3497C4.37942 17.6567 3.01367 19.1166 3.01367 20.9035ZM37.778 19.4743C38.4458 19.6476 38.9434 20.2139 38.9434 20.9035V22.0787C38.9434 22.8343 38.3536 23.4533 37.5919 23.5591C37.6642 22.981 37.7114 22.3969 37.7114 21.8016C37.7114 21.2248 37.6579 20.6614 37.5856 20.1038C37.6523 19.8953 37.7205 19.6871 37.778 19.4743ZM8.90758 19.9015C8.95369 19.6123 9.01688 19.3304 9.08404 19.0475C10.9155 17.7577 13.2627 15.7476 14.161 14.1659C14.161 14.1659 28.9922 17.611 34.3948 18.0057C34.5496 18.0173 34.6964 18.0235 34.837 18.0246C35.0358 18.6352 35.1952 19.2571 35.2976 19.9015C35.3967 20.5234 35.4633 21.1543 35.4633 21.8016C35.4633 22.2637 35.4337 22.7186 35.383 23.1672C35.2976 23.9375 35.1331 24.6815 34.9094 25.4036C33.2744 30.675 28.157 34.5369 22.1032 34.5369C16.0493 34.5369 10.9297 30.6765 9.29583 25.4047C9.07151 24.6829 8.90758 23.9375 8.82329 23.1689C8.77152 22.7186 8.7419 22.2637 8.7419 21.8016C8.7419 21.1543 8.80848 20.5234 8.90758 19.9015ZM5.26184 20.9035C5.26184 20.1611 5.83453 19.5567 6.57914 19.4394C6.58369 19.7255 6.59395 20.007 6.60018 20.2931C6.53816 20.7892 6.49374 21.2892 6.49374 21.8016C6.49374 22.3969 6.53932 22.981 6.6122 23.5591C5.85103 23.4533 5.26184 22.8343 5.26184 22.0787V20.9035Z" fill="#616E7D"/>
</g>
<defs>
<clipPath id="clip0_209_57">
<rect width="44" height="55" fill="white"/>
</clipPath>
</defs>
</svg>
