<svg width="31" height="31" viewBox="0 0 31 31" fill="none" xmlns="http://www.w3.org/2000/svg">
<path d="M15.5803 0.75C7.30905 0.75 0.580322 7.47908 0.580322 15.75C0.580322 24.0209 7.30905 30.75 15.5803 30.75C23.8516 30.75 30.5803 24.0209 30.5803 15.75C30.5803 7.47908 23.8516 0.75 15.5803 0.75ZM22.6256 14.0801L15.6593 21.0463C14.8951 21.8106 13.6569 21.8106 12.8926 21.0463L8.86114 17.0149C8.09685 16.2509 8.09685 15.0122 8.86114 14.2482C9.62544 13.4839 10.8635 13.4839 11.6278 14.2482L14.276 16.896L19.8589 11.3133C20.6232 10.549 21.8613 10.549 22.6256 11.3133C23.3899 12.0774 23.3899 13.3161 22.6256 14.0801Z" fill="#25D483" stroke="#25D483" stroke-width="0.001675"/>
</svg>
