<svg width="51" height="51" viewBox="0 0 51 51" fill="none" xmlns="http://www.w3.org/2000/svg">
<g clip-path="url(#clip0_347_283)">
<path d="M22.4 2.49999C22.7 3.89999 23.3 6.09999 23.6 7.49999C24.6 11.7 22.2 10.3 21 5.99999C20.4 3.79999 19.6 1.99999 19.1 1.99999C16.6 1.99999 9.99996 13.7 11.8 14.9C12.3 15.2 13 17.4 13.3 19.8C13.6 22.2 15 25.6 16.5 27.6C20.2 32.4 19.5 34.2 13.5 35.6C6.69996 37.1 4.29996 38.8 2.49996 43.3C-0.700036 51.2 -1.10004 51 17.5 51H34V45.6C34 42.1 34.5 39.8 35.5 39C37.7 37.2 37.3 35.2 34.8 34.8C31.5 34.4 31.5 31.6 34.5 27.6C36 25.6 37.4 22.2 37.7 19.8C38 17.4 38.7 15.2 39.2 14.9C39.7 14.6 39.2 12.3 38.2 9.89999C35 2.49999 30 -0.300011 30 5.29999C30 7.79999 28.4 10.7 27.5 9.89999C27.2 9.49999 27.3 7.39999 27.8 5.19999C28.9 0.39999 28.7 -1.14441e-05 24.7 -1.14441e-05C22.1 -1.14441e-05 21.8 0.299988 22.4 2.49999ZM35 19.5C35 23.2 34.5 24.5 31.5 27.5C27 31.9 24.3 31.9 19.7 27.5C16.5 24.4 16 23.3 16 19.5V15H25.5H35V19.5ZM30.7 34.7C31.7 36.7 31.4 37 28.6 38C26.3 38.7 24.5 38.7 22.3 38C19.6 37 19.4 36.6 20.3 34.7C21.8 31.5 29.2 31.5 30.7 34.7Z" fill="black"/>
<path d="M44.5 18.2C44.1 19.5 43.8 21 43.9 21.7C44 22.3 43.6 23.1 43.1 23.5C42.5 23.8 42.3 24.7 42.6 25.4C42.9 26.2 42.7 27.1 42.1 27.4C41.5 27.8 41.3 28.7 41.6 29.4C41.9 30.2 41.6 31.1 41.1 31.5C40.5 31.8 40.2 32.6 40.6 33.1C40.9 33.6 40.6 34.7 40 35.5C38.4 37.5 40.4 38.2 46.1 37.8L50.5 37.5L50.8 28.1C51.1 18.4 50.3 16 47 16C46 16 44.9 17 44.5 18.2Z" fill="black"/>
<path d="M36.4 41.4C36.1 42.2 36 44.5 36.2 46.6L36.5 50.5L40.8 50.3C43.2 50.2 46.3 49.4 47.6 48.5C50.1 46.9 51.7 42.9 50.5 41.1C49.5 39.4 37.1 39.7 36.4 41.4Z" fill="black"/>
</g>
<defs>
<clipPath id="clip0_347_283">
<rect width="51" height="51" fill="white"/>
</clipPath>
</defs>
</svg>
