<svg width="258" height="326" viewBox="0 0 258 326" fill="none" xmlns="http://www.w3.org/2000/svg">
<g clip-path="url(#clip0_70_88)">
<path d="M159.002 135C165.63 135 171 134.552 171 134C171 133.448 165.63 133 159.002 133C158.033 133 157.099 133.012 156.196 133.03C157.072 133.133 157.615 133.26 157.615 133.4C157.615 133.731 154.684 134 151.077 134C149.597 134 148.241 133.953 147.151 133.877C147.09 133.918 147 133.958 147 134C147 134.552 152.369 135 159.002 135Z" fill="black"/>
<path d="M104.137 145.656C110.999 145.656 116.561 140.542 116.561 134.235C116.561 127.925 110.999 122.811 104.137 122.811C102.671 122.811 101.289 123.085 99.9849 123.517C100.726 124.614 101.165 125.941 101.165 127.379C101.165 131.163 98.1345 134.235 94.3966 134.235C93.4683 134.235 92.5777 134.046 91.7725 133.7C91.7637 133.88 91.7134 134.054 91.7134 134.235C91.7134 140.542 97.2741 145.656 104.137 145.656Z" fill="black"/>
<path d="M249.413 214.265C249.413 192.024 230.245 173.999 206.599 173.999H197.436C182.061 198.437 157.657 216.51 129 216.658C100.342 216.51 75.9387 198.437 60.5645 173.999H51.4021C27.7538 173.999 8.58779 192.024 8.58779 214.265L0 285.733C0 307.969 19.1684 326 42.8143 326H178.748V285.618C168.541 281.075 161.401 270.751 161.401 258.726C161.401 247.272 167.465 237.635 176.896 232.79C178.136 232.156 179.879 233.083 178.99 234.855C178.393 236.266 178.096 236.348 177.309 238.46C176.526 240.578 174.951 249.7 176.042 254.496C177.143 259.291 183.724 267.46 190.794 267.46C190.89 267.46 190.978 267.451 191.071 267.443C191.071 267.443 191.326 267.46 191.421 267.46C198.491 267.46 205.075 259.291 206.173 254.496C207.267 249.7 205.692 240.578 204.908 238.46C204.117 236.344 203.83 236.262 203.228 234.851C202.338 233.083 204.079 232.154 205.319 232.79C214.752 237.632 220.814 247.272 220.814 258.726C220.814 270.534 213.923 280.686 204.011 285.351V326H215.185C238.831 326 258 307.969 258 285.733L249.413 214.265Z" fill="black"/>
<path d="M210.849 88.7841C210.849 84.5854 208.295 83.8884 207.052 83.8884H203.062C202.837 81.2089 202.568 78.4886 202.568 75.7312C202.568 50.5418 186.052 28.2338 166.687 14.4608C166.674 15.0201 166.695 15.5793 166.669 16.1372C166.581 18.0826 166.488 20.0293 166.395 21.966C166.261 23.9025 166.004 25.8212 165.805 27.7272C165.462 31.5416 164.727 35.2499 164.059 38.8306C163.354 42.405 162.447 45.8186 161.557 49.0331C160.562 52.2258 159.627 55.2308 158.539 57.9461C156.493 63.3995 154.228 67.7436 152.525 70.699C150.821 73.6592 149.597 75.2153 149.597 75.2153C149.597 75.2153 149.627 74.7278 149.673 73.8062C149.753 72.9024 149.753 71.5439 149.902 69.8793C150.101 66.5679 150.393 61.8358 150.736 56.1589C151.131 50.5559 151.512 44.0722 151.93 37.1903C152.099 33.7513 152.285 30.1999 152.467 26.5935C152.558 24.7961 152.646 22.9794 152.739 21.1603C152.784 19.3412 152.832 17.5132 152.877 15.6852C153.089 12.5881 153.072 9.49895 153.129 6.42884C144.694 2.38591 136.312 0.0983019 129 0C121.688 0.0983019 113.306 2.38591 104.87 6.42884C104.928 9.49895 104.911 12.5881 105.122 15.6852C105.168 17.5132 105.216 19.3412 105.261 21.1603C105.354 22.9794 105.442 24.7961 105.533 26.5935C105.714 30.1999 105.901 33.7513 106.07 37.1903C106.488 44.0722 106.868 50.5559 107.264 56.1589C107.606 61.8358 107.899 66.5679 108.098 69.8793C108.247 71.5439 108.247 72.9024 108.327 73.8062C108.372 74.7278 108.403 75.2153 108.403 75.2153C108.403 75.2153 107.178 73.6592 105.475 70.699C103.772 67.7436 101.507 63.3995 99.4609 57.9461C98.3724 55.2308 97.4377 52.2258 96.4426 49.0331C95.553 45.8186 94.6461 42.405 93.9405 38.8306C93.2728 35.2499 92.5372 31.5416 92.1946 27.7272C91.9954 25.8212 91.7385 23.9025 91.6051 21.966C91.5117 20.0293 91.4185 18.0826 91.3303 16.1372C91.305 15.5793 91.3254 15.0201 91.3128 14.4608C71.9475 28.2338 55.4322 50.5418 55.4322 75.7312C55.4322 78.4886 55.1626 81.2089 54.9381 83.8884H50.9474C49.7051 83.8884 47.1504 84.5854 47.1504 88.7841V109.53H55.1902C55.0643 111.623 54.9735 113.724 54.9735 115.855C54.9735 164.347 87.4126 202.385 129 202.965C170.587 202.385 203.026 164.347 203.026 115.855C203.026 113.724 202.935 111.623 202.81 109.53H210.849V88.7841ZM129 194.576C92.0535 193.987 63.2527 159.631 63.2527 115.855C63.2527 113.722 63.3559 111.621 63.4921 109.53H194.508C194.644 111.621 194.747 113.722 194.747 115.855C194.747 159.631 165.946 193.987 129 194.576Z" fill="#5F49E5"/>
<path d="M98 163C120.178 179.3 152.574 169.792 166 163" stroke="black" stroke-width="3" stroke-linecap="round"/>
</g>
<defs>
<clipPath id="clip0_70_88">
<rect width="258" height="326" fill="white"/>
</clipPath>
</defs>
</svg>
