<svg width="58" height="58" viewBox="0 0 58 58" fill="none" xmlns="http://www.w3.org/2000/svg">
<circle cx="29" cy="29" r="29" fill="#DCDDE1"/>
<path fill-rule="evenodd" clip-rule="evenodd" d="M58 29C58 45.0161 45.0161 58 29 58C12.9837 58 0 45.0161 0 29C0 12.9837 12.9837 0 29 0C45.0161 0 58 12.9837 58 29ZM37.7 20.3C37.7 25.105 33.805 29 29 29C24.195 29 20.3 25.105 20.3 20.3C20.3 15.4951 24.195 11.6 29 11.6C33.805 11.6 37.7 15.4951 37.7 20.3ZM29 53.65C34.1736 53.65 38.9751 52.0562 42.94 49.3325C44.6913 48.1296 45.4395 45.838 44.4216 43.9733C42.311 40.1079 37.9616 37.7 28.9997 37.7C20.0381 37.7 15.6889 40.1076 13.5782 43.9733C12.56 45.838 13.3084 48.1293 15.0596 49.3322C19.0245 52.0559 23.8261 53.65 29 53.65Z" fill="white"/>
</svg>
