<svg width="18" height="18" viewBox="0 0 18 18" fill="none" xmlns="http://www.w3.org/2000/svg">
<path d="M9 1.125C6.52588 1.125 4.5 3.15088 4.5 5.625V7.875C3.25195 7.875 2.25 8.87695 2.25 10.125V15.75C2.25 16.374 2.75098 16.875 3.375 16.875H14.625C15.249 16.875 15.75 16.374 15.75 15.75V10.125C15.75 8.87695 14.748 7.875 13.5 7.875V5.625C13.5 3.15088 11.4741 1.125 9 1.125ZM9 3.375C10.2656 3.375 11.25 4.35938 11.25 5.625V7.875H6.75V5.625C6.75 4.35938 7.73438 3.375 9 3.375Z" fill="#7D7D7D"/>
</svg>
