<svg width="16" height="17" viewBox="0 0 16 17" fill="none" xmlns="http://www.w3.org/2000/svg">
<path fill-rule="evenodd" clip-rule="evenodd" d="M4 5.66675C4 3.31954 5.79086 1.41675 8 1.41675C10.2091 1.41675 12 3.31954 12 5.66675C12 8.01395 10.2091 9.91675 8 9.91675C5.79086 9.91675 4 8.01395 4 5.66675Z" fill="#7F71D6"/>
<path fill-rule="evenodd" clip-rule="evenodd" d="M3.62062 11.9725C4.70391 11.49 6.14886 11.3333 8 11.3333C9.84733 11.3333 11.2901 11.4894 12.3724 11.9694C13.5341 12.4846 14.2472 13.36 14.6273 14.6332C14.7685 15.1063 14.4345 15.5833 13.9728 15.5833H2.02306C1.56321 15.5833 1.23119 15.1085 1.37126 14.6379C1.75024 13.3648 2.46079 12.4891 3.62062 11.9725Z" fill="#7F71D6"/>
</svg>
