<?xml version="1.0" standalone="no"?>
<!DOCTYPE svg PUBLIC "-//W3C//DTD SVG 20010904//EN"
 "http://www.w3.org/TR/2001/REC-SVG-20010904/DTD/svg10.dtd">
<svg version="1.0" xmlns="http://www.w3.org/2000/svg"
 width="51.000000pt" height="51.000000pt" viewBox="0 0 51.000000 51.000000"
 preserveAspectRatio="xMidYMid meet">

<g transform="translate(0.000000,51.000000) scale(0.100000,-0.100000)"
fill="#000000" stroke="none">
<path d="M226 483 c9 -39 13 -43 35 -43 12 0 19 7 19 19 0 11 3 26 6 35 5 13
-1 16 -30 16 -35 0 -36 -1 -30 -27z"/>
<path d="M172 435 c-12 -15 -22 -32 -22 -36 0 -5 -7 -9 -15 -9 -8 0 -15 -4
-15 -10 0 -6 52 -10 135 -10 83 0 135 4 135 10 0 6 -7 10 -15 10 -8 0 -15 4
-15 9 0 4 -10 21 -22 36 l-21 27 -14 -26 c-20 -37 -76 -37 -96 0 l-14 26 -21
-27z"/>
<path d="M150 309 c0 -46 56 -99 105 -99 49 0 105 53 105 99 l0 31 -105 0
-105 0 0 -31z"/>
<path d="M200 172 c0 -7 11 -18 25 -24 30 -14 78 -1 83 22 2 12 -9 15 -53 15
-38 0 -55 -4 -55 -13z"/>
<path d="M104 146 c-28 -20 -46 -66 -42 -107 2 -26 8 -35 26 -37 17 -3 22 2
22 18 0 12 5 30 11 41 5 11 9 38 7 60 -3 38 -4 39 -24 25z"/>
<path d="M170 120 l0 -40 85 0 85 0 0 40 0 39 -25 -24 c-16 -17 -35 -25 -60
-25 -25 0 -44 8 -60 25 l-25 24 0 -39z"/>
<path d="M380 125 c0 -19 5 -55 12 -80 10 -37 16 -45 33 -43 43 6 24 122 -25
148 -18 10 -20 8 -20 -25z"/>
<path d="M150 25 l0 -25 105 0 105 0 0 25 0 25 -105 0 -105 0 0 -25z"/>
</g>
</svg>
