<?xml version="1.0" standalone="no"?>
<!DOCTYPE svg PUBLIC "-//W3C//DTD SVG 20010904//EN"
 "http://www.w3.org/TR/2001/REC-SVG-20010904/DTD/svg10.dtd">
<svg version="1.0" xmlns="http://www.w3.org/2000/svg"
 width="52.000000pt" height="52.000000pt" viewBox="0 0 52.000000 52.000000"
 preserveAspectRatio="xMidYMid meet">

<g transform="translate(0.000000,52.000000) scale(0.100000,-0.100000)"
fill="#000000" stroke="none">
<path d="M182 473 c-12 -13 -34 -42 -48 -64 -25 -40 -25 -41 -5 -46 16 -4 21
-13 21 -37 0 -18 7 -41 15 -52 8 -10 15 -29 15 -41 0 -22 -10 -26 -89 -36 -26
-4 -50 -51 -53 -107 l-3 -55 149 0 c108 0 150 3 153 12 3 9 -20 13 -84 15 -73
3 -88 6 -91 20 -3 15 7 18 75 20 96 4 103 22 11 26 -65 3 -68 4 -68 27 0 29 1
29 35 13 19 -8 31 -8 50 0 36 16 31 30 -12 34 -50 4 -57 28 -8 28 50 0 95 44
95 94 0 25 4 36 15 36 20 0 19 13 -2 48 -43 70 -70 92 -110 91 -27 -1 -45 -8
-61 -26z m80 -25 c2 -16 9 -22 22 -20 17 3 35 -12 36 -30 0 -5 -34 -8 -76 -8
-66 0 -75 2 -72 18 2 11 13 17 28 17 18 0 26 6 28 23 2 12 10 22 17 22 7 0 15
-10 17 -22z m48 -115 c0 -34 -36 -73 -67 -73 -32 0 -63 34 -63 70 l0 30 65 0
c64 0 65 0 65 -27z m-160 -182 c0 -11 -4 -23 -10 -26 -5 -3 -10 -19 -10 -36 0
-26 -3 -29 -31 -29 l-32 0 6 46 c5 49 18 64 55 64 15 0 22 -6 22 -19z"/>
<path d="M340 251 c-38 -38 -41 -87 -6 -128 13 -16 26 -42 28 -58 4 -42 22
-33 26 13 2 30 -2 43 -23 62 -25 24 -33 64 -15 75 6 3 10 -4 10 -18 0 -15 8
-28 23 -34 32 -14 67 4 67 34 0 14 4 21 10 18 19 -12 10 -56 -16 -80 -20 -19
-25 -31 -22 -61 4 -47 28 -59 28 -14 0 20 10 44 25 62 42 49 32 118 -21 146
-28 15 -34 7 -34 -40 0 -27 -4 -38 -15 -38 -11 0 -15 11 -15 39 0 53 -14 59
-50 22z"/>
</g>
</svg>
