<svg width="89" height="91" viewBox="0 0 89 91" fill="none" xmlns="http://www.w3.org/2000/svg">
<g clip-path="url(#clip0_204_1314)">
<path d="M11.7227 81.5177C11.7227 83.3491 13.1742 84.8348 14.9652 84.8348H23.9185C25.7111 84.8348 27.1626 83.3491 27.1626 81.5177V74.6924H11.7227V81.5177Z" fill="black"/>
<path d="M61.7529 81.5177C61.7529 83.3491 63.2046 84.8348 64.9984 84.8348H73.9517C75.7414 84.8348 77.193 83.3491 77.193 81.5177V74.6924H61.7529V81.5177Z" fill="black"/>
<path d="M78.4677 38.4732L73.9161 21.5884C71.4551 12.4763 63.3556 6.16479 54.1213 6.16479H34.7943C25.5584 6.16479 17.4607 12.4765 15.0023 21.5884L10.4493 38.4732C4.33905 40.868 0 46.9257 0 54.021C0 63.2149 7.28216 70.669 16.2656 70.669H72.6471C81.6305 70.669 88.917 63.2147 88.917 54.021C88.917 46.9257 84.5764 40.871 78.4677 38.4732ZM16.2656 61.1834C12.3985 61.1834 9.26578 57.9758 9.26578 54.021C9.26578 50.0618 12.3985 46.8542 16.2656 46.8542C20.1328 46.8542 23.2683 50.062 23.2683 54.021C23.2683 57.9758 20.1328 61.1834 16.2656 61.1834ZM64.0102 30.6889C63.7436 31.0464 63.3301 31.258 62.8907 31.258H26.0261C25.5853 31.258 25.1718 31.0464 24.9067 30.6889C24.6401 30.3299 24.5501 29.8658 24.67 29.4309L26.3267 23.2872C27.6386 18.4173 32.002 15.0156 36.937 15.0156H51.9793C56.913 15.0156 61.2763 18.4174 62.5896 23.2842L64.2451 29.4309C64.3651 29.866 64.2781 30.3301 64.0102 30.6889ZM72.6471 61.1834C68.7829 61.1834 65.6457 57.9758 65.6457 54.021C65.6457 50.0618 68.7829 46.8542 72.6471 46.8542C76.5157 46.8542 79.6498 50.062 79.6498 54.021C79.6498 57.9758 76.5155 61.1834 72.6471 61.1834Z" fill="black"/>
</g>
<defs>
<clipPath id="clip0_204_1314">
<rect width="88.917" height="91" fill="white"/>
</clipPath>
</defs>
</svg>
